<svg width="320" height="320" viewBox="0 0 320 320" fill="none" xmlns="http://www.w3.org/2000/svg">
  <rect width="320" height="320" rx="48" fill="#FFF8EC"/>
  <circle cx="248" cy="72" r="28" fill="#FFD53A" fill-opacity="0.55"/>
  <circle cx="78" cy="82" r="18" fill="#19A64B" fill-opacity="0.16"/>
  <path d="M90 273C104 219 131 192 160 192C189 192 216 219 230 273" fill="#E9F7EE"/>
  <path d="M112 118C112 91.4903 133.49 70 160 70C186.51 70 208 91.4903 208 118V147C208 173.51 186.51 195 160 195C133.49 195 112 173.51 112 147V118Z" fill="#F5C6A5"/>
  <path d="M117 122C117 91.6243 141.624 67 172 67C188.248 67 202.85 74.0519 212.92 85.2525C205.908 82.5649 198.292 81.0841 190.33 81.0841H146.904C127.438 81.0841 111.659 96.8631 111.659 116.329V136.71C115.019 132.398 117 127.002 117 121.143V122Z" fill="#183147"/>
  <path d="M126 154C132 151 137 146 140.5 140L145.5 147.5C151 155.75 159.694 160.785 169.611 161.182L192 162.078C204.264 162.568 214 172.708 214 185V191C214 186.882 213.093 182.814 211.343 179.087L203 161.321V129.5C203 110.446 187.554 95 168.5 95H151.5C132.446 95 117 110.446 117 129.5V159C120.237 157.91 123.301 156.243 126 154Z" fill="#183147"/>
  <path d="M145 170C149.899 175.202 156.844 178.5 164.5 178.5C172.156 178.5 179.101 175.202 184 170" stroke="#D18F63" stroke-width="4.5" stroke-linecap="round"/>
  <circle cx="143.5" cy="133.5" r="4.5" fill="#183147"/>
  <circle cx="180.5" cy="133.5" r="4.5" fill="#183147"/>
  <path d="M135 231C135 219.954 143.954 211 155 211H165C176.046 211 185 219.954 185 231V273H135V231Z" fill="#19A64B"/>
  <path d="M130 221C130 211.611 137.611 204 147 204H173C182.389 204 190 211.611 190 221V235H130V221Z" fill="#FFD53A"/>
  <rect x="148" y="221" width="24" height="14" rx="7" fill="#FFF8EC"/>
  <path d="M110 275C114 253.5 126.5 237 145 229V275H110Z" fill="#19A64B"/>
  <path d="M210 275C206 253.5 193.5 237 175 229V275H210Z" fill="#19A64B"/>
  <rect x="96" y="248" width="128" height="28" rx="14" fill="#183147" fill-opacity="0.06"/>
</svg>