<svg width="512" height="512" viewBox="0 0 96 96" fill="none" xmlns="http://www.w3.org/2000/svg">
  <circle cx="48" cy="48" r="44" fill="#FFD53A"/>
  <circle cx="48" cy="48" r="32" fill="#FFFDF6" stroke="#F3B71B" stroke-width="8"/>
  <path d="M30 19h24a5 5 0 0 1 5 5v35H25V24a5 5 0 0 1 5-5Z" fill="#1AA64B"/>
  <path d="M35 24h15a4 4 0 0 1 4 4v26H31V28a4 4 0 0 1 4-4Z" fill="#0C7A34"/>
  <rect x="45" y="38" width="2.8" height="8" rx="1.4" fill="#FFF4D4"/>
  <path d="M61.5 26c-4.3 0-7.8 3.4-7.8 7.7 0 6.1 7.8 12.3 7.8 12.3s7.8-6.2 7.8-12.3c0-4.3-3.5-7.7-7.8-7.7Zm0 10.6a2.9 2.9 0 1 1 0-5.8 2.9 2.9 0 0 1 0 5.8Z" fill="#FFD53A"/>
  <path d="M18.2 55.4 62.8 51c1.5-.2 2.9.9 3.1 2.4l.8 6c.2 1.5-.9 2.9-2.4 3.1l-44.6 4.4c-1.5.2-2.9-.9-3.1-2.4l-.8-6c-.2-1.5.9-2.9 2.4-3.1Z" fill="white" stroke="#D9D5CA" stroke-width="1.2"/>
  <path d="M27 59h27.5" stroke="#1F2933" stroke-width="4.2" stroke-linecap="round"/>
  <path d="M27 64h20" stroke="#1F2933" stroke-width="4.2" stroke-linecap="round"/>
</svg>